<mxfile host="app.diagrams.net" modified="2023-03-19T23:35:43.403Z" agent="5.0 (Windows NT 10.0; Win64; x64) AppleWebKit/537.36 (KHTML, like Gecko) Chrome/111.0.0.0 Safari/537.36" etag="MMmMmrq-5kyDAB1Wtvwz" version="21.0.8" type="github">
  <diagram name="Page-1" id="FJi_-vFyt6QAbfv1_J9n">
    <mxGraphModel dx="1434" dy="764" grid="1" gridSize="10" guides="1" tooltips="1" connect="1" arrows="1" fold="1" page="1" pageScale="1" pageWidth="850" pageHeight="1100" math="0" shadow="0">
      <root>
        <mxCell id="0" />
        <mxCell id="1" parent="0" />
        <mxCell id="JvEvBGiNttwZiKyeAhzA-1" value="" style="rounded=0;whiteSpace=wrap;html=1;" vertex="1" parent="1">
          <mxGeometry width="850" height="60" as="geometry" />
        </mxCell>
        <mxCell id="JvEvBGiNttwZiKyeAhzA-2" value="Text" style="text;html=1;strokeColor=none;fillColor=none;align=center;verticalAlign=middle;whiteSpace=wrap;rounded=0;" vertex="1" parent="1">
          <mxGeometry x="780" y="10" width="60" height="30" as="geometry" />
        </mxCell>
        <mxCell id="JvEvBGiNttwZiKyeAhzA-4" value="" style="rounded=1;whiteSpace=wrap;html=1;" vertex="1" parent="1">
          <mxGeometry x="30" y="110" width="430" height="340" as="geometry" />
        </mxCell>
        <mxCell id="JvEvBGiNttwZiKyeAhzA-5" value="&lt;h1&gt;Heading&lt;/h1&gt;&lt;p&gt;Lorem ipsum dolor sit amet, consectetur adipisicing elit, sed do eiusmod tempor incididunt ut labore et dolore magna aliqua.&lt;/p&gt;" style="text;html=1;strokeColor=none;fillColor=none;spacing=5;spacingTop=-20;whiteSpace=wrap;overflow=hidden;rounded=0;" vertex="1" parent="1">
          <mxGeometry x="500" y="120" width="330" height="330" as="geometry" />
        </mxCell>
        <mxCell id="JvEvBGiNttwZiKyeAhzA-7" value="" style="rounded=1;whiteSpace=wrap;html=1;" vertex="1" parent="1">
          <mxGeometry x="20" y="590" width="170" height="150" as="geometry" />
        </mxCell>
        <mxCell id="JvEvBGiNttwZiKyeAhzA-8" value="" style="rounded=1;whiteSpace=wrap;html=1;" vertex="1" parent="1">
          <mxGeometry x="320" y="590" width="170" height="140" as="geometry" />
        </mxCell>
        <mxCell id="JvEvBGiNttwZiKyeAhzA-9" value="" style="rounded=1;whiteSpace=wrap;html=1;" vertex="1" parent="1">
          <mxGeometry x="610" y="590" width="170" height="130" as="geometry" />
        </mxCell>
      </root>
    </mxGraphModel>
  </diagram>
</mxfile>
